<svg fill="#5777A8" height="511pt" viewBox="0 0 511.99964 511" width="511pt" xmlns="http://www.w3.org/2000/svg"><path d="m482 400.570312-.011719-14.058593c.023438-32.21875.308594-60.417969 2.652344-66.636719 4.769531-12.328125 13.992187-18.425781 19.066406-20.960938 6.222657-3.109374 9.488281-10.089843 7.890625-16.863281-1.597656-6.769531-7.644531-11.554687-14.597656-11.554687-28.03125 0-54.605469 11.304687-74.828125 31.835937-20.101563 20.40625-31.171875 47.101563-31.171875 75.167969v15h-101.0625c10.8125-23.90625 42.039062-57.464844 70.214844-87.75 46.71875-50.210938 90.847656-97.636719 90.847656-139.25 0-90.203125-140.824219-164.324219-223.902344-164.984375-.394531-.011719-.769531-.015625-1.097656-.015625s-.703125.003906-1.097656.015625c-83.550782.660156-224.902344 75.003906-224.902344 164.984375 0 41.617188 44.390625 89.042969 91.386719 139.253906 28.351562 30.289063 59.761719 63.851563 70.644531 87.746094h-102.03125c-33.085938 0-60 26.914062-60 60 0 33.082031 26.914062 59.996094 60 59.996094h392c33.082031 0 59.996094-26.914063 59.996094-59.996094 0-22.160156-12.082032-41.539062-29.996094-51.929688zm-61-23.070312c0-26.269531 13.785156-49.972656 34.269531-63.933594-2.617187 10.710938-3.140625 28.960938-3.242187 63.167969-.027344.550781-.019532-.640625-.019532 15.765625h-31.007812zm-165 104.996094c-33.085938 0-60-26.914063-60-59.996094v-15c0-37.378906-9.746094-61.824219-20.0625-87.703125-12.261719-30.753906-24.9375-62.558594-24.9375-124.296875v-49.578125c2.195312 3.335937 4.390625 6.535156 6.542969 9.546875 14.261719 19.964844 33.898437 42.960938 53.457031 51.546875v12.269531l-25.605469 25.605469c-5.859375 5.859375-5.859375 15.355469 0 21.214844 5.855469 5.855469 15.355469 5.855469 21.210938 0l19.394531-19.394531 19.394531 19.394531c5.855469 5.859375 15.351563 5.859375 21.210938 0s5.859375-15.355469 0-21.210938l-25.605469-25.609375v-12.269531c19.558594-8.585937 39.195312-31.582031 53.453125-51.546875 2.152344-3.011719 4.351563-6.210938 6.546875-9.542969v49.574219c0 61.742188-12.679688 93.542969-24.9375 124.296875-10.320312 25.878906-20.0625 50.324219-20.0625 87.703125v15c0 23.027344 8.699219 44.0625 22.980469 59.996094zm-226-316.996094c0-11.296875 3.410156-22.546875 9.398438-33.460938 10.117187 9.523438 26.6875 18.460938 53.265624 18.460938 11.15625 0 20.503907-1.574219 28.335938-4.105469v47.113281c-1.363281 3.523438-8.839844 16.992188-43.511719 16.992188-13.3125 0-24.246093-2.089844-31.890625-6.046875-9.566406-14.597656-15.597656-27.96875-15.597656-38.953125zm196-135c.179688 0 .367188.007812.550781.007812 11.480469.285157 74.449219 9.003907 74.449219 44.992188 0 9.433594-11.582031 35.402344-30.957031 62.53125-22.695313 31.773438-39.75 42.46875-44.042969 42.46875-4.296875 0-21.347656-10.695312-44.042969-42.46875-19.378906-27.128906-30.957031-53.097656-30.957031-62.53125 0-35.992188 62.972656-44.707031 74.449219-44.992188.183593 0 .367187-.007812.550781-.007812zm195 135c0 10.96875-5.964844 24.308594-15.425781 38.863281-7.652344 4.015625-18.652344 6.136719-32.0625 6.136719-34.773438 0-41.425781-13.5-42.511719-16.691406v-47.414063c7.832031 2.53125 17.179688 4.105469 28.332031 4.105469 26.273438 0 42.558594-8.710938 52.488281-18.144531 5.851563 10.816406 9.179688 21.957031 9.179688 33.144531zm-82.808594 118.8125c-9.714844 10.441406-19.136718 20.566406-27.925781 30.386719 8.175781-21.679688 15.957031-46.921875 19.175781-82.777344 10.425782 5.046875 24.652344 8.578125 44.070313 8.578125 1.488281 0 2.949219-.027344 4.394531-.070312-12.53125 14.664062-26.425781 29.601562-39.714844 43.882812zm55.65625-176.539062c-4.476562 5.566406-14.179687 12.726562-34.515625 12.726562-13.742187 0-22.632812-3.273438-28.332031-7.113281v-37.886719c0-4.75-.523438-9.949219-1.929688-15.347656 24.886719 12.980468 47.964844 29.40625 64.777344 47.621094zm-270.832031-47.941407c-1.46875 5.511719-2.015625 10.824219-2.015625 15.667969v37.886719c-5.703125 3.839843-14.59375 7.113281-28.335938 7.113281-20.394531 0-30.46875-7.195312-35.25-12.863281 17.027344-18.3125 40.417969-34.808594 65.601563-47.804688zm-49.621094 180.609375c1.347657.035156 2.710938.058594 4.09375.058594 19.890625 0 34.421875-3.714844 45.035157-8.949219 3.226562 36.367188 11.140624 61.839844 19.425781 83.722657-9.003907-10.015626-18.675781-20.351563-28.660157-31.019532-13.347656-14.261718-27.304687-29.171875-39.894531-43.8125zm-43.394531 212.058594c0-16.542969 13.457031-30 30-30h106c0 23.027344 8.699219 44.0625 22.980469 59.996094h-128.980469c-16.542969 0-30-13.457032-30-29.996094zm422 29.996094h-106c-33.085938 0-60-26.914063-60-59.996094h166c16.539062 0 30 13.457031 30 30 0 16.539062-13.460938 29.996094-30 29.996094zm0 0"/><path d="m211 75.5c0 8.285156-6.714844 15-15 15s-15-6.714844-15-15 6.714844-15 15-15 15 6.714844 15 15zm0 0"/><path d="m271 75.5c0 8.285156-6.714844 15-15 15s-15-6.714844-15-15 6.714844-15 15-15 15 6.714844 15 15zm0 0"/></svg>