<svg fill="#5777A8" id="Layer_1" enable-background="new 0 0 512 512" height="512" viewBox="0 0 512 512" width="512" xmlns="http://www.w3.org/2000/svg"><g><path d="m488.04 58.024c-.954-4.07-2.418-8.056-4.401-11.915-3.19-6.23-7.56-11.86-12.98-16.73-11.41-10.24-26.28-15.88-41.901-15.88h-.02c-10.74 0-19.86 1.5-27.891 4.57-5.52 2.09-10.6 5.06-15.08 8.83-3.92 3.29-7.421 7.21-10.41 11.66-4.62 6.82-11.68 22.91-12.25 24.17-4.41 10.11-15.31 22.56-31.501 36.01-20.25 16.94-47.251 34.58-73.361 51.64-3.78 2.47-40.491 26.73-53.461 36.43-13.531 10.14-23.141 18.59-30.281 26.579-6.49 3.19-29.66 14.84-56.001 31.29-18.18 11.37-34.22 22.73-47.661 33.78-15.991 13.17-27.981 25.48-36.661 37.619-3.42 1.01-8.62 2.87-14.08 6.03-5.65 3.3-10.03 7.12-13.42 11.68-4.35 5.81-6.68 16.002-6.68 21.37 0 6.29.17 13.41 3.49 20.64 1.97 4.21 5.18 7.76 9.04 9.99 3.98 2.33 8.8 3.52 14.34 3.52h.06c8.72-.05 18.81-2.61 32.691-8.3 13.4-5.53 29.4-13.74 48.921-25.11 5.53.75 16.94 1.99 31.281 1.99 19.85-.01 38.111-2.35 54.261-6.95 7.19 2.15 23.29 5.75 50.331 5.75h.05c1.93 0 3.92-.02 5.91-.06-.33 2.92-.49 5.87-.5 8.78.01 10.86 2.31 20.73 6.83 29.32 4.103 7.837 12.416 18.656 28.79 25.826l7.146 51.295c-7.501 2.985-16.255 6.928-17.601 7.538-5.032 2.276-7.265 8.201-4.988 13.232 1.672 3.694 5.31 5.88 9.117 5.88 1.378 0 2.779-.286 4.117-.892 6.75-3.054 18.989-8.331 23.098-9.492 8.745-2.473 24.936-3.853 31.332.116 1.281.795 1.496 1.446 1.618 2.099 1.013 5.43 6.237 9.018 11.664 7.997 5.429-1.013 9.01-6.234 7.997-11.663-1.209-6.484-4.921-11.818-10.732-15.426-10.562-6.555-25.833-5.993-36.148-4.559l-6.365-45.69c3.173-1.049 5.694-3.647 6.547-7.022.01 0 .01-.01.03-.1.22-.84 1.08-3.95 2.65-8.62 1.77-5.22-1.05-10.91-6.27-12.68-1.04-.35-2.12-.52-3.2-.52-4.29 0-8.1 2.73-9.47 6.8-.3.87-.58 1.74-.88 2.65h-3.24c-8.18-3.98-13.75-9.1-17.52-16.11-2.96-5.58-4.53-12.49-4.52-19.98 0-4.86 2.25-16.12 2.25-16.12v-.01c1.03-3.14.44-6.57-1.56-9.19-1.99-2.61-5.22-4.09-8.5-3.91-6.05.34-11.98.51-17.6.51-25.97 0-46.501-5.51-46.501-5.51-2.12-.86-4.48-.95-6.67-.28-18.65 5.78-38.2 6.99-51.321 6.99h-.15c-9.64 0-31.591-2.25-31.591-2.25-2.31-.4-4.77.05-6.78 1.24-19.79 11.65-36.431 20.28-49.451 25.64-10.49 4.36-19.68 6.85-25.081 6.79-1.93-.01-3.802.209-4.27-.77-1.663-3.478-2.67-10.42-2.66-14.38.03-3.32.84-5.78 2.78-8.48 2.28-3.18 6.72-6.37 11.88-8.53 2.26-.97 7.58-2.51 7.58-2.51 2.63-.52 4.9-2.04 6.38-4.27 5.071-7.646 12.319-15.951 21.323-24.486.538.076 12.048 1.612 20.449 2.414 13.776 1.317 51.443 3.286 68.73 2.803 53.022-1.481 136.038-6.842 230.225-35.09 6.111-1.833 11.79-3.886 17.043-6.142-1.279 1.768-2.57 3.478-3.873 5.111-9.02 11.33-18.86 19.67-28.481 24.119-10.15 4.71-19.83 11.26-28.771 19.46-4.07 3.73-4.34 10.06-.62 14.13 1.89 2.06 4.58 3.24 7.381 3.24 2.5 0 4.9-.93 6.75-2.63 7.44-6.82 15.41-12.22 23.69-16.07 6.52-3.04 12.93-7.22 19.06-12.42 5.68-4.82 11.28-10.67 16.63-17.36 14.59-18.32 27.101-42.679 36.2-70.419 4.26-13.08 7.58-26.33 9.85-39.4 2.3-13.25 3.47-25.98 3.48-37.84 0-5.89-1-18.23-1-18.9 0-5.17 2.15-9.97 5.89-13.15 5.99-5.11 10.64-11.81 13.44-19.38.99-2.673 1.75-5.431 2.302-8.249 1.962 1.664 3.688 4.484 3.688 10.055 0 5.523 4.477 10 10 10s10-4.477 10-10c.002-19.388-12.305-28.987-23.958-32.138zm-104.448 198.827c-38.503 11.548-75.169 19.414-108.984 24.666 2.496-2.625 4.854-5.263 6.862-7.774 3.45-4.312 2.751-10.605-1.562-14.056-4.313-3.45-10.606-2.751-14.056 1.562-7.089 8.86-20.014 20.295-25.269 24.823-21.77 2.446-42.027 3.83-60.436 4.489 4.387-3.236 8.906-6.739 13.274-10.405 4.231-3.55 4.782-9.858 1.231-14.088-3.55-4.23-9.858-4.782-14.089-1.231-14.24 11.951-30.752 22.403-36.867 26.153-22.204-.285-40.181-1.541-52.988-2.791 20.723-16.079 43.587-30.087 59.884-39.39 10.34-5.9 32.738-17.472 33.068-17.633 105.482-15.054 119.349-20.927 156.642-49.92 13.58-10.557 34.534-17.092 46.161-17.092 25.439 0 46.135 20.695 46.135 46.133.002 21.436-16.029 36.664-49.006 46.554zm83.667-175.462c-1.69 4.51-4.2 8.16-7.68 11.14-8.2 7.02-12.901 17.35-12.901 28.36 0 1.4 1 13.73 1 18.9.016 11.772-1.318 24.623-3.789 37.767-11.406-19.926-32.866-33.392-57.425-33.392-17.693 0-42.816 9.158-58.437 21.302-29.365 22.828-40.218 29.581-116.541 41.379 5.282-4.112 90.708-61.286 106.009-72.186 16.45-11.71 28.74-21.57 38.7-31.01 12.46-11.88 20.46-22.29 25.181-32.76.28-.64 8.95-20.46 14.8-26.4 3.38-3.47 7.14-5.93 11.83-7.74 5.62-2.15 12.6-3.25 20.75-3.25 10.65 0 20.79 3.83 28.541 10.77 7.15 6.39 11.52 14.829 12 23.139.032.681-.678 10.351-2.038 13.981z"/><path d="m324.176 351.107c-3.52 0-6.83 1.89-8.62 4.92-1.36 2.3-1.74 4.99-1.07 7.58.66 2.58 2.3 4.75 4.6 6.11 1.54.91 3.29 1.39 5.07 1.39 3.53 0 6.83-1.88 8.631-4.91 2.8-4.75 1.22-10.89-3.53-13.7-1.541-.91-3.301-1.39-5.081-1.39z"/><circle cx="438.169" cy="66.811" r="10"/></g></svg>