<svg fill="#5777A8" id="Layer_1" enable-background="new 0 0 512.001 512.001" height="512" viewBox="0 0 512.001 512.001" width="512" xmlns="http://www.w3.org/2000/svg"><g><path d="m463.711 219.081c-4.256-14.164-8.308-27.658-11.979-41.43 20.923-7.579 34.959-27.405 34.959-50.645 0-29.783-24.23-54.014-54.014-54.014-1.407 0-2.805.074-4.197.183-18.384-55.499-58.136-74.262-89.899-73.127-26.813.957-44.117 12.139-58.021 21.122-9.453 6.108-16.92 10.934-24.576 10.934s-15.123-4.825-24.576-10.934c-13.904-8.983-31.208-20.165-58.021-21.122-31.787-1.135-71.517 17.652-89.896 73.125-1.383-.107-2.771-.18-4.168-.18-29.783 0-54.014 24.23-54.014 54.014 0 23.171 13.946 42.946 34.755 50.572l-19.229 66.501c-1.155 3.979 1.133 8.14 5.111 9.294.698.203 1.402.3 2.095.3 3.251 0 6.247-2.131 7.199-5.41l21.27-73.589c.018-.057.034-.115.05-.172l.058-.202-.007-.002c.029-.114.062-.227.086-.344.831-4.059-1.786-8.021-5.844-8.852-17.984-3.681-30.545-19.346-30.545-38.095 0-21.513 17.501-39.014 39.014-39.014 11.08 0 21.677 4.737 29.074 12.998 2.764 3.086 7.505 3.35 10.591.584 3.085-2.763 3.347-7.505.584-10.59-5.884-6.571-13.235-11.52-21.331-14.551 4.35-12.639 9.919-23.021 16.259-31.405 37.29 5.817 57.131 41.797 63.952 57.052-2.084.755-4.134 1.51-6.159 2.255-7.515 2.767-14.613 5.38-21.756 7.379-26.325 7.371-33.281 32.681-33.281 45.034v47.819c0 9.077 2.456 17.925 6.402 26.449-5.794 9.124-20.41 34.144-29.874 67.907-12.604 44.958-10.963 88.093 4.538 126.441-49.137-39.244-66.634-87.447-52.105-144.224 1.027-4.013-1.394-8.099-5.406-9.125-4.013-1.026-8.099 1.395-9.125 5.406-16.828 65.767 5.154 121.553 65.337 165.807 37.658 27.691 89.014 50.102 157.002 68.511.642.174 1.301.261 1.96.261s1.318-.087 1.96-.261c67.989-18.409 119.347-40.819 157.005-68.511 60.183-44.254 82.163-100.04 65.332-165.807-5.502-21.509-11.129-40.233-16.57-58.342zm-286.949-149.754c-13.981-18.998-31.211-31.596-50.43-37.037 14.788-12.862 31.711-17.77 46.52-17.251 22.681.81 37.416 10.331 50.416 18.73 10.612 6.857 20.636 13.335 32.717 13.335s22.105-6.478 32.717-13.334c13-8.4 27.735-17.922 50.416-18.731 18.811-.688 34.294 6.288 46.531 17.249-19.222 5.44-36.456 18.039-50.439 37.04-7.936 10.784-13.107 21.263-15.96 27.875-16.857-5.319-36.706-9.684-63.266-9.684-26.559 0-46.407 4.365-63.263 9.684-2.853-6.614-8.023-17.093-15.959-27.876zm-52.647 374.044c-25.026-41.066-30.425-88.136-16.014-139.944 7.08-25.451 17.483-45.944 24.077-57.435 8.062 12.077 18.189 23.3 27.254 33.336 9.89 10.95 24.835 27.498 21.188 31.146-8.897 8.897-13.813 18.21-14.611 27.68-.637 7.551 1.67 12.433 2.166 13.385.077.145 6.126 11.618 13.428 28.554-2.659 5.592-7.295 17.403-8.171 33.23-.867 15.651 1.928 37.818 17.31 62.245-25.445-9.798-47.661-20.533-66.627-32.197zm131.869 53.358c-13.859-3.788-27.035-7.778-39.56-11.958-19.722-22.242-29.164-45.738-28.056-69.865.242-5.267.988-10.01 1.931-14.107 11.166 22.435 28.469 23.682 32.127 23.682.092 0 .175-.001.249-.002h66.617c3.051.05 20.933-.682 32.377-23.677.943 4.096 1.688 8.839 1.93 14.104 1.109 24.128-8.334 47.625-28.058 69.867-12.523 4.179-25.698 8.168-39.557 11.956zm157.699-71.391c5.726-14.1 9.589-28.826 11.509-44.046.518-4.109-2.394-7.861-6.503-8.38-4.104-.515-7.861 2.393-8.38 6.503-2.862 22.689-10.429 44.198-22.473 63.969-18.962 11.659-41.173 22.39-66.608 32.184 15.382-24.427 18.177-46.595 17.31-62.246-.876-15.825-5.51-27.635-8.169-33.228 7.294-16.916 13.356-28.422 13.453-28.606.469-.902 2.776-5.784 2.14-13.335-.798-9.47-5.714-18.782-14.61-27.679-3.648-3.648 11.297-20.196 21.187-31.146 9.06-10.031 19.182-21.248 27.242-33.319 10.035 17.532 28.906 56.01 31.546 101.262.232 3.986 3.538 7.063 7.48 7.063.147 0 .295-.004.443-.013 4.136-.241 7.292-3.789 7.051-7.924-3.312-56.768-29.65-102.272-37.992-115.378 3.947-8.525 6.403-17.374 6.403-26.452 0-4.143-3.357-7.5-7.5-7.5s-7.5 3.357-7.5 7.5c0 22.293-21.239 45.811-38.306 64.706-8.616 9.54-16.058 17.779-20.696 25.401-4.552 7.478-8.24 18.129.034 26.404 13.396 13.397 10.075 22.703 9.7 23.62-1.116 2.124-10.632 20.427-20.278 45.078-7.459 19.063-19.202 19.693-20.423 19.706-.182-.018-.157-.007-.396-.007h-66.726c-.238-.001-.214-.012-.396.007-1.222-.013-12.964-.645-20.423-19.705-9.717-24.835-19.302-43.225-20.278-45.079-.375-.914-3.698-10.222 9.7-23.62 8.275-8.275 4.586-18.927.035-26.404-4.639-7.622-12.081-15.861-20.697-25.401-17.066-18.896-38.306-42.413-38.306-64.706v-47.784c.009-.998.485-24.51 22.325-30.624 7.719-2.161 15.09-4.875 22.894-7.748 20.238-7.451 43.177-15.896 78.508-15.896 35.334 0 58.272 8.445 78.511 15.896 7.804 2.873 15.174 5.587 22.892 7.748 21.839 6.114 22.314 29.626 22.324 30.59l.001 12.957c0 4.142 3.358 7.499 7.501 7.499 4.142 0 7.499-3.358 7.499-7.501l-.001-12.956c0-12.354-6.955-37.663-33.279-45.034-7.142-1.999-14.239-4.612-21.754-7.379-2.029-.747-4.085-1.504-6.175-2.261 6.772-15.23 26.475-51.098 63.767-57.017 7.132 9.516 12.617 20.418 16.459 31.387-8.084 3.032-15.423 7.978-21.299 14.54-2.764 3.086-2.502 7.827.584 10.59 3.087 2.766 7.829 2.502 10.59-.584 7.397-8.261 17.994-12.998 29.073-12.998 21.512 0 39.014 17.502 39.014 39.014 0 18.75-12.571 34.418-30.571 38.102-4.058.83-6.674 4.793-5.844 8.852.024.117.057.229.086.344l-.007.002c4.215 16.565 8.963 32.365 13.99 49.093 5.397 17.962 10.979 36.535 16.404 57.743 14.529 56.763-2.954 104.958-52.065 144.196z"/><path d="m295.933 252.18c-24.641-14.411-55.255-14.411-79.896 0-2.006 1.173-3.355 3.21-3.652 5.516-.297 2.305.492 4.618 2.135 6.261l33.964 33.966v32.216l-19.633 19.634c-2.929 2.93-2.929 7.678 0 10.607 1.464 1.464 3.384 2.196 5.303 2.196s3.839-.732 5.303-2.196l16.526-16.527 16.528 16.527c2.928 2.928 7.677 2.929 10.606-.001 2.929-2.929 2.929-7.678-.001-10.606l-19.634-19.633v-32.216l33.966-33.966c1.644-1.644 2.432-3.957 2.135-6.262-.295-2.306-1.644-4.343-3.65-5.516zm-39.949 32.029-23.421-23.422c15.036-5.892 31.805-5.894 46.843 0z"/><path d="m103.722 143.905v-16.898c0-13.453-10.945-24.398-24.398-24.398s-24.398 10.945-24.398 24.398 10.945 24.398 24.398 24.398h16.898c4.142 0 7.5-3.358 7.5-7.5zm-15-7.5h-9.398c-5.182 0-9.398-4.216-9.398-9.398 0-5.183 4.216-9.398 9.398-9.398s9.398 4.216 9.398 9.398z"/><path d="m457.076 127.006c0-13.453-10.945-24.398-24.398-24.398s-24.398 10.945-24.398 24.398v16.898c0 4.143 3.357 7.5 7.5 7.5h16.898c13.453.001 24.398-10.945 24.398-24.398zm-24.398 9.399h-9.398v-9.398c0-5.183 4.216-9.398 9.398-9.398s9.398 4.216 9.398 9.398-4.216 9.398-9.398 9.398z"/><path d="m239.744 190.134c0-18.872-15.354-34.226-34.226-34.226h-26.726c-4.142 0-7.5 3.357-7.5 7.5v26.726c0 18.873 15.354 34.227 34.226 34.227s34.226-15.354 34.226-34.227zm-34.226 19.227c-10.601 0-19.226-8.625-19.226-19.227v-19.226h19.226c10.601 0 19.226 8.625 19.226 19.226 0 10.602-8.625 19.227-19.226 19.227z"/><path d="m333.21 155.909h-26.726c-18.873 0-34.227 15.354-34.227 34.226 0 18.873 15.354 34.227 34.227 34.227 18.872 0 34.226-15.354 34.226-34.227v-26.726c0-4.143-3.358-7.5-7.5-7.5zm-7.5 34.225c0 10.602-8.625 19.227-19.226 19.227-10.602 0-19.227-8.625-19.227-19.227 0-10.601 8.625-19.226 19.227-19.226h19.226z"/></g></svg>