<?xml version="1.0" encoding="iso-8859-1"?>
<!-- Generator: Adobe Illustrator 16.0.0, SVG Export Plug-In . SVG Version: 6.00 Build 0)  -->
<!DOCTYPE svg PUBLIC "-//W3C//DTD SVG 1.1//EN" "http://www.w3.org/Graphics/SVG/1.1/DTD/svg11.dtd">
<svg version="1.1" id="Capa_1" fill="white" xmlns="http://www.w3.org/2000/svg" xmlns:xlink="http://www.w3.org/1999/xlink" x="0px" y="0px"
	 width="478.402px" height="478.402px" viewBox="0 0 478.402 478.402" style="enable-background:new 0 0 478.402 478.402;"
	 xml:space="preserve">
<g>
	<g>
		<path d="M478.052,257.586l-20.936-47.225l-1.442-3.242l-0.132-0.307l-0.028,0.014c-4.224-7.41-11.975-10.912-19.713-10.912
			c-0.144,0-0.288,0.008-0.437,0.008c-15.265,0.252-31.069,13.15-31.069,34.298c0,1.703-0.04,3.492-0.108,5.334
			c-39.489-101.703,17.673-169.038,18.286-169.735l2.368-2.717L373.43,9.625H105.792L54.384,63.102l2.366,2.709
			c0.165,0.18,16.06,18.636,25.475,50.345c8.053,27.146,12.714,69.531-7.917,121.293c-0.122-2.503-0.21-4.951-0.21-7.222
			c0-21.147-15.797-34.045-31.071-34.3c-7.913-0.021-15.844,3.417-20.136,10.906l-0.04-0.016l-0.148,0.347l-1.398,3.146
			L0.344,257.595c-0.188,0.437-0.306,0.889-0.328,1.37c-0.024,0.368-0.457,9.141,5.48,15.248c2.887,2.974,6.705,4.717,11.321,5.306
			c-0.449,7.658-0.112,24.727,8.734,44.787c10.78,24.441,36.834,58.145,99.763,79.893c102.386,35.385,105.838,48.028,108.377,57.266
			c0.471,1.72,0.942,3.375,1.701,5.037c0.659,1.436,2.09,2.276,3.573,2.276c0.08,0,0.156-0.044,0.234-0.06
			c0.08,0.016,0.156,0.06,0.236,0.06c1.485,0,2.905-0.841,3.573-2.276c0.768-1.662,1.23-3.317,1.703-5.037
			c2.528-9.237,5.991-21.881,108.381-57.266c105.436-36.448,109.282-106.678,108.44-124.671c4.637-0.581,8.477-2.325,11.373-5.307
			c5.928-6.103,5.507-14.888,5.482-15.256C478.36,258.476,478.235,258.015,478.052,257.586z M76.353,252.642
			C123.47,150.75,76.106,78.426,64.906,63.497l44.228-46.007h260.961l44.202,45.979c-4.953,6.464-16.835,23.782-24.706,50.081
			c-9.108,30.437-14.193,79.083,12.94,138.287c-4.633,28.204-20.346,62.327-67.457,75.175
			c-51.872,14.154-86.688,41.16-95.872,48.867c-9.189-7.707-44.005-34.713-95.872-48.867c-46.767-12.756-62.59-46.474-67.357-74.546
			L76.353,252.642z M11.17,268.779c-2.849-2.897-3.258-7.193-3.312-8.772l13.401-30.228c2.591,7.357,7.918,11.77,13.146,13.529
			c2.773,0.934,5.528,1.05,8.127,0.753c-4.442,12.006-12.301,27.624-21.528,27.875C16.628,272.121,13.334,270.987,11.17,268.779z
			 M45.445,234.647c-0.777,1.101-2.53,1.83-4.963,1.836l5.009-5.572C46.067,232.474,46.067,233.778,45.445,234.647z M350.515,396.76
			c-89.245,30.857-106.21,45.493-111.324,56.565c-5.109-11.072-22.064-25.708-111.316-56.565
			C24.186,360.93,23.497,293.985,24.673,279.282c18.25-4.508,27.695-39.445,28.766-43.653l-0.024-0.008
			c0.76-3.116,0.461-7.754-4.193-13.708c-0.713-0.908-1.797-1.469-2.952-1.507c-1.152,0.07-2.276,0.441-3.054,1.305l-10.549,11.722
			c-3.505-3.056-5.386-8.119-5.182-14.367c0.076-2.27,0.509-4.164,1.114-5.859l1.003-2.268c2.883-5.125,8.242-7.073,13.299-7.175
			c11.319,0.194,23.347,9.525,23.347,26.463c0,25.227,7.31,85.899,75.019,104.373c57.683,15.733,94.684,48.835,95.052,49.168
			c0.751,0.681,1.695,1.018,2.637,1.018c0.076,0,0.158-0.044,0.243-0.044c0.08,0.004,0.156,0.044,0.245,0.044
			c0.943,0,1.881-0.337,2.637-1.018c0.369-0.333,37.267-33.406,95.054-49.168c67.71-18.474,75.02-79.146,75.02-104.373
			c0-16.932,12.026-26.269,23.352-26.449c5.089,0.088,10.318,1.99,13.192,6.951l1.182,2.651c0.549,1.657,0.974,3.493,1.042,5.692
			c0.2,6.25-1.679,11.313-5.182,14.369l-10.552-11.724c-0.781-0.87-1.955-1.311-3.058-1.302c-1.15,0.046-2.248,0.597-2.953,1.506
			c-4.645,5.961-4.949,10.59-4.191,13.708l-0.024,0.008c1.074,4.2,10.52,39.137,28.766,43.645
			C454.908,293.985,454.215,360.93,350.515,396.76z M432.911,230.911l5.006,5.572c-2.645,0.066-4.184-0.744-4.957-1.836
			C432.339,233.778,432.339,232.474,432.911,230.911z M467.235,268.779c-2.172,2.208-5.49,3.342-9.83,3.149
			c-9.213-0.244-17.072-15.846-21.521-27.868c2.593,0.297,5.338,0.181,8.119-0.753c5.229-1.759,10.56-6.171,13.148-13.529
			l13.394,30.228C470.493,261.602,470.064,265.882,467.235,268.779z"/>
	</g>
</g>
<g>
</g>
<g>
</g>
<g>
</g>
<g>
</g>
<g>
</g>
<g>
</g>
<g>
</g>
<g>
</g>
<g>
</g>
<g>
</g>
<g>
</g>
<g>
</g>
<g>
</g>
<g>
</g>
<g>
</g>
</svg>
