<?xml version="1.0" encoding="iso-8859-1"?>
<!-- Generator: Adobe Illustrator 19.0.0, SVG Export Plug-In . SVG Version: 6.00 Build 0)  -->
<svg fill="#5777A8" xmlns="http://www.w3.org/2000/svg" xmlns:xlink="http://www.w3.org/1999/xlink" version="1.1" id="Layer_1" x="0px" y="0px" viewBox="0 0 512.18 512.18" style="enable-background:new 0 0 512.18 512.18;" xml:space="preserve" width="512" height="512">
<g>
	<path d="M479.965,177.128c-0.955-2.228-1.95-4.434-2.969-6.627c6.66-6.062,13.23-13.337,19.037-23.394   c28.949-50.141,17.535-111.12-25.442-135.933c-42.056-24.28-96.501-7.383-125.974,35.611c-28.09-10.943-58.034-16.62-88.526-16.62   c-30.664,0-60.773,5.741-89,16.806C136.131,1.161,84.222-11.706,44.59,11.174C1.587,36.002-14.078,94.245,14.96,144.54   c5.621,9.737,12.391,18.456,20.176,26.065c-1.002,2.159-1.981,4.33-2.921,6.523L0,260.348   c5.735,5.682,114.21,72.505,177.871,231.659l8.063,20.158h140.311l8.063-20.158C397.945,332.915,506.47,266.004,512.18,260.348   L479.965,177.128z M338.108,388.874c-24.006-40.73-37.018-88.262-37.018-136.545c0-35.889,7.168-70.812,21.306-103.799   l28.461-66.408c41.267,20.275,75.503,53.635,96.552,96.045C390.219,234.705,351.422,309.414,338.108,388.874z M455.59,37.155   c28.652,16.542,35.139,59.137,14.462,94.952c-2.429,4.206-5.026,7.711-8.019,10.994c-11.228-17.715-24.726-33.884-40.207-48.146   c4.251-5.133,8.502-6.789,9.63-6.947c-0.001,0-0.127,0.017-0.365,0.017v-30c-9.541,0-22.404,5.642-32.543,18.003   c-8.232-5.896-16.665-11.224-26.183-16.381C393.838,32.086,429.111,21.867,455.59,37.155z M323.062,70.818l-28.241,65.895   c-15.747,36.743-23.731,75.642-23.731,115.617c0,64.237,20.758,127.348,58.453,177.765c-5.187,10.12-10.095,20.449-14.738,30.959   l-1.882-3.764c-10.833-21.666-32.61-35.125-56.833-35.125c-43.227,0-58.209,38.318-58.715,38.889   c-4.643-10.509-9.551-20.838-14.738-30.959c37.695-50.417,58.453-113.529,58.453-177.765c0-39.975-7.984-78.874-23.731-115.617   l-28.241-65.895c21.231-6.946,43.783-10.653,66.972-10.653S301.831,63.871,323.062,70.818z M291.819,482.165H220.36l5.729-11.459   c5.718-11.437,17.213-18.541,30-18.541s24.282,7.104,30,18.541L291.819,482.165z M161.323,82.122l28.461,66.408   c14.137,32.987,21.306,67.91,21.306,103.799c0,48.283-13.012,95.815-37.018,136.545c-13.289-79.309-52.005-154.064-109.3-210.708   C85.821,135.757,120.056,102.397,161.323,82.122z M40.94,129.54C21.123,95.214,29.315,54.634,59.59,37.155   c26.068-15.049,58.801-5.183,79.855,22.695c-9.476,5.155-17.716,10.392-25.584,16.014c-9.146-11.005-21.243-17.34-33.758-17.34v30   c2.168,0,6.337,1.442,10.451,6.245c-15.501,14.248-29.019,30.406-40.268,48.11C46.836,138.776,43.706,134.329,40.94,129.54z    M36.131,250.108l16.177-41.802c38.647,40.964,67.055,90.752,82.815,144.681C106.5,313.926,73.255,279.296,36.131,250.108z    M377.057,352.986c15.76-53.929,44.168-103.717,82.815-144.681l16.177,41.802C438.925,279.296,405.68,313.926,377.057,352.986z"/>
	<rect x="151.09" y="240.165" width="30" height="30"/>
	<rect x="331.09" y="240.165" width="30" height="30"/>
</g>















</svg>
